HIERARCHY
ROOT Hips
{
	OFFSET 0.000000 0.000000 0.000000 
	CHANNELS 6 Xposition Yposition Zposition Zrotation Yrotation Xrotation
	JOINT LeftUpLeg
	{
		OFFSET 1.363060 -1.794630 0.839290 
		CHANNELS 3 Zrotation Yrotation Xrotation
		JOINT LeftLeg
		{
			OFFSET 2.448110 -6.726130 0.000000 
			CHANNELS 3 Zrotation Yrotation Xrotation
			JOINT LeftFoot
			{
				OFFSET 2.562200 -7.039590 0.000000 
				CHANNELS 3 Zrotation Yrotation Xrotation
				JOINT LeftToeBase
				{
					OFFSET 0.157640 -0.433110 2.322550 
					CHANNELS 3 Zrotation Yrotation Xrotation
					End Site
					{
						OFFSET 0.000000 0.000000 0.000000 
					}
				}
			}
		}
	}
	JOINT RightUpLeg
	{
		OFFSET -1.305520 -1.794630 0.839290 
		CHANNELS 3 Zrotation Yrotation Xrotation
		JOINT RightLeg
		{
			OFFSET -2.542530 -6.985550 0.000000 
			CHANNELS 3 Zrotation Yrotation Xrotation
			JOINT RightFoot
			{
				OFFSET -2.568260 -7.056230 0.000000 
				CHANNELS 3 Zrotation Yrotation Xrotation
				JOINT RightToeBase
				{
					OFFSET -0.164730 -0.452590 2.363150 
					CHANNELS 3 Zrotation Yrotation Xrotation
					End Site
					{
						OFFSET 0.000000 0.000000 0.000000 
					}
				}
			}
		}
	}
	JOINT Spine
	{
		OFFSET 0.028270 2.035590 -0.193380 
		CHANNELS 3 Zrotation Yrotation Xrotation
		JOINT Spine1
		{
			OFFSET 0.056720 2.048850 -0.042750 
			CHANNELS 3 Zrotation Yrotation Xrotation
			JOINT Neck1
			{
				OFFSET -0.054170 1.746240 0.172020 
				CHANNELS 3 Zrotation Yrotation Xrotation
				JOINT Head
				{
					OFFSET 0.104070 1.761360 -0.123970 
					CHANNELS 3 Zrotation Yrotation Xrotation
					End Site
					{
						OFFSET 0.000000 0.000000 0.000000 
					}
				}
			}
			JOINT LeftArm
			{
				OFFSET 3.362410 1.200890 -0.311210 
				CHANNELS 3 Zrotation Yrotation Xrotation
				JOINT LeftForeArm
				{
					OFFSET 4.983000 -0.000000 -0.000000 
					CHANNELS 3 Zrotation Yrotation Xrotation
					JOINT LeftHand
					{
						OFFSET 3.483560 -0.000000 -0.000000 
						CHANNELS 3 Zrotation Yrotation Xrotation
						JOINT LeftHandIndex1
						{
							OFFSET 0.715260 -0.000000 -0.000000 
							CHANNELS 3 Zrotation Yrotation Xrotation
							End Site
							{
								OFFSET 0.000000 0.000000 0.000000 
							}
						}
					}
				}
			}
			JOINT RightArm
			{
				OFFSET -3.136600 1.374050 -0.404650 
				CHANNELS 3 Zrotation Yrotation Xrotation
				JOINT RightForeArm
				{
					OFFSET -5.241900 -0.000000 -0.000000 
					CHANNELS 3 Zrotation Yrotation Xrotation
					JOINT RightHand
					{
						OFFSET -3.444170 -0.000000 -0.000000 
						CHANNELS 3 Zrotation Yrotation Xrotation
						JOINT RightHandIndex1
						{
							OFFSET -0.622530 -0.000000 -0.000000 
							CHANNELS 3 Zrotation Yrotation Xrotation
							End Site
							{
								OFFSET 0.000000 0.000000 0.000000 
							}
						}
					}
				}
			}
		}
	}
}
MOTION
Frames: 14
Frame Time: 0.041667
0.162652 17.505935 -31.773749 -5.957679 -0.387860 10.501004 -12.566000 -14.969514 -37.403693 0.953438 8.697519 23.127708 0.783703 -3.925294 -4.433009 0.001100 0.216500 0.594900 35.022397 -2.255705 15.325532 0.258874 0.026328 1.178050 1.126689 -11.374600 -11.983952 -0.026800 -1.056600 2.904500 2.161893 3.753002 -0.980033 5.832948 1.520112 0.444579 -1.903284 1.842685 10.809053 -0.308200 -0.065600 7.660500 -91.016402 14.425600 24.251350 18.102244 -29.071887 -4.393775 0.451826 0.042222 6.186640 -7.125000 0.000000 0.000000 80.585491 5.241542 -16.931341 -4.997584 8.507156 -0.133984 0.744389 0.136204 5.160455 7.125000 0.000000 0.000000 
0.165191 17.493751 -31.660746 -6.182152 -0.588781 10.520415 -12.235235 -15.229302 -36.907274 0.962825 8.708965 23.182856 0.766731 -3.807539 -4.333899 0.000700 0.176000 0.483400 35.160963 -2.332027 15.718154 0.261045 0.024542 1.183524 1.150695 -11.396975 -11.553756 -0.010600 -0.664500 1.826200 2.188322 3.743778 -0.967367 5.939822 1.509197 0.542025 -1.762400 1.970900 10.843556 -0.194700 -0.011500 7.703000 -91.175337 14.562658 23.711189 17.919885 -28.846294 -4.315895 0.455070 0.033895 6.191336 -7.125000 0.000000 0.000000 80.511920 5.753669 -16.654596 -4.762314 7.971188 -0.083756 0.763145 0.126808 5.432051 7.125000 0.000000 0.000000 
0.186918 17.497406 -31.536472 -5.998550 -0.755413 10.719970 -12.671466 -15.135886 -36.695070 0.983351 8.712530 23.237626 0.799343 -4.236634 -3.919159 0.000900 0.189400 0.520400 34.740264 -2.376868 15.919089 0.253656 0.027569 1.185172 1.169391 -11.390347 -11.100775 -0.002600 -0.328600 0.902800 2.093045 3.778069 -1.064879 5.775371 1.539641 0.440345 -1.671747 1.957630 10.914856 -0.175200 -0.001100 7.691700 -91.122861 14.810557 23.233201 17.797506 -28.668179 -4.247014 0.453254 0.039412 6.548811 -7.125000 0.000000 0.000000 80.621252 5.202543 -16.523622 -4.976631 8.476167 -0.123371 0.766197 0.091191 5.099783 7.125000 0.000000 0.000000 
0.194025 17.491112 -31.414533 -6.106887 -0.837982 10.663045 -12.546033 -15.437284 -36.192254 1.007021 8.749100 23.376350 0.767260 -4.098825 -3.485490 0.000900 0.198900 0.546600 34.715477 -2.616603 16.357433 0.253452 0.026566 1.190742 1.176383 -11.316598 -10.655581 -0.001100 -0.214600 0.589500 2.076489 3.916299 -1.072111 5.786829 1.607701 0.437279 -1.549371 1.866426 10.950231 -0.130000 -0.035100 7.700200 -90.966825 14.788272 23.468409 17.658447 -28.480647 -4.173779 0.453936 0.039885 6.454244 -7.125000 0.000000 0.000000 80.633442 5.156458 -16.691885 -5.021033 8.567628 -0.141884 0.741636 0.121713 5.026179 7.125000 0.000000 0.000000 
0.213519 17.498422 -31.286605 -5.905138 -0.841003 10.752984 -12.773255 -15.946275 -35.800369 1.022606 8.773540 23.471092 0.719504 -3.880197 -2.874369 0.002400 0.313200 0.860400 34.294598 -2.877998 16.627679 0.246068 0.028167 1.193618 1.180365 -11.217668 -10.143183 -0.000500 -0.143900 0.395400 2.012972 4.007684 -1.147303 5.767241 1.660540 0.314018 -1.474176 1.765386 11.081696 -0.122700 -0.076100 7.750700 -90.911994 14.948151 23.343304 17.473689 -28.232636 -4.093240 0.453946 0.038070 6.742185 -7.125000 0.000000 0.000000 80.628078 4.881773 -16.863047 -5.075884 8.702440 -0.157446 0.733432 0.107519 4.550842 7.125000 0.000000 0.000000 
0.226921 17.508676 -31.158168 -5.868230 -0.929150 10.779978 -13.167717 -15.478948 -35.722217 1.070334 8.803432 23.630765 0.762888 -4.582930 -1.795566 0.010400 0.659100 1.811200 34.061142 -3.070622 16.972884 0.240478 0.028178 1.198382 1.192254 -11.146614 -9.493809 -0.000200 -0.082300 0.226100 1.954418 4.013279 -1.221875 5.642702 1.671983 0.145326 -1.384074 1.805922 11.218896 -0.093900 -0.049500 7.810800 -90.868560 15.002874 22.950319 17.238762 -27.892903 -3.965757 0.453115 0.039843 6.762563 -7.125000 0.000000 0.000000 80.794541 4.747891 -16.706670 -5.091585 8.741433 -0.156073 0.745245 0.080972 4.376329 7.125000 0.000000 0.000000 
0.242557 17.525327 -31.031255 -5.522793 -0.917224 10.821630 -13.693511 -15.616859 -35.439673 1.092389 8.815957 23.711679 0.746044 -4.688809 -0.835774 0.026000 1.040500 2.860300 33.494461 -3.382197 17.240645 0.231100 0.028540 1.200762 1.211967 -11.126029 -8.752530 -0.000100 0.064900 -0.178200 1.864377 3.965502 -1.231610 5.572141 1.646344 0.244221 -1.301659 1.803015 11.297409 -0.060500 -0.044900 7.843600 -90.752511 15.093182 23.003743 17.175264 -27.816843 -3.944723 0.455772 0.035865 7.096602 -7.125000 0.000000 0.000000 80.866925 4.764962 -16.666915 -5.070492 8.691100 -0.156415 0.735351 0.106328 4.007982 7.125000 0.000000 0.000000 
0.261645 17.540252 -30.906169 -5.147432 -0.631533 10.816460 -14.372419 -15.664386 -35.193654 1.122009 8.830588 23.807841 0.761247 -5.101620 0.150342 0.052000 1.471800 4.047900 32.921765 -3.959293 17.455571 0.223538 0.025996 1.202653 1.232708 -11.131628 -7.992856 -0.000900 0.194200 -0.533700 1.766984 3.818463 -1.241195 5.366423 1.573097 0.308258 -1.216757 1.782613 11.394320 -0.007600 -0.056400 7.906900 -90.600133 15.013477 22.810270 17.076931 -27.671680 -3.889138 0.457336 0.037948 7.017083 -7.125000 0.000000 0.000000 80.935455 4.922938 -16.673125 -5.034825 8.625232 -0.149039 0.738556 0.115683 3.916146 7.125000 0.000000 0.000000 
0.279616 17.554568 -30.771844 -4.806651 -0.703566 10.813008 -14.982868 -15.508722 -34.886816 1.139624 8.833327 23.868947 0.758974 -5.244848 0.844274 0.078900 1.811700 4.985600 32.321341 -4.217343 17.795792 0.215408 0.026516 1.204962 1.267504 -11.236964 -7.140022 -0.003700 0.394900 -1.085000 1.657440 3.762329 -1.288971 5.186215 1.550514 0.268116 -1.161936 1.834404 11.516057 0.014900 -0.022600 7.918200 -90.535663 15.153261 22.583587 17.068094 -27.640621 -3.864152 0.456970 0.039225 7.122964 -7.125000 0.000000 0.000000 81.101730 4.733323 -16.488015 -5.017521 8.595571 -0.140614 0.753233 0.100401 3.757373 7.125000 0.000000 0.000000 
0.294744 17.561777 -30.647875 -4.599074 -0.555280 10.678480 -15.359263 -15.615305 -34.409342 1.161590 8.858138 23.986291 0.749585 -5.242403 1.261851 0.100400 2.043000 5.624400 31.909269 -4.716215 18.179662 0.212583 0.022287 1.208382 1.306608 -11.400643 -6.263951 -0.007300 0.550100 -1.511700 1.543737 3.683902 -1.307028 4.832452 1.516422 0.209682 -1.052149 1.827523 11.586865 0.051400 -0.008800 7.922600 -90.178244 14.885282 22.582178 16.690177 -27.106409 -3.689818 0.460841 0.038060 7.350490 -7.125000 0.000000 0.000000 81.305857 4.617200 -16.446257 -5.045095 8.699731 -0.153848 0.747454 0.060890 3.649080 7.125000 0.000000 0.000000 
0.314542 17.571625 -30.513956 -4.499911 -0.588229 10.675380 -15.681879 -15.385343 -34.082152 1.184143 8.898207 24.116729 0.764922 -5.467209 1.494747 0.116600 2.201800 6.063600 31.996217 -3.748053 15.302693 -0.050652 -2.250192 7.465258 1.079150 -10.288341 -8.181592 -0.009800 0.639400 -1.757000 1.521664 3.833343 -1.284731 4.879494 1.592397 0.338734 -1.043214 1.736150 11.742012 0.053400 -0.060100 8.004900 -90.231695 14.482549 22.369286 16.385812 -26.690120 -3.550248 0.462486 0.035497 7.898855 -7.125000 0.000000 0.000000 81.206177 4.417615 -16.744941 -5.147521 8.927939 -0.172512 0.745338 0.090228 3.479797 7.125000 0.000000 0.000000 
0.330787 17.573453 -30.383184 -4.345971 -0.569181 10.594442 -16.257356 -14.609267 -33.902141 1.228420 8.939886 24.298487 0.834850 -6.384587 1.785521 0.126600 2.293700 6.318100 31.804163 -3.478714 14.076794 -0.270512 -3.367587 10.582319 0.996890 -9.852595 -8.502617 -0.009200 0.620700 -1.705700 1.492211 3.878104 -1.306714 4.901783 1.618956 0.258750 -0.946193 1.725181 11.850024 0.112200 -0.064800 8.036500 -90.168665 14.375357 22.750840 16.267950 -26.520231 -3.492139 0.462702 0.032424 8.138159 -7.125000 0.000000 0.000000 81.050586 4.294617 -16.847087 -5.106798 8.856664 -0.167308 0.744706 0.061821 3.349019 7.125000 0.000000 0.000000 
0.345814 17.581575 -30.250077 -4.118632 -0.634154 10.387963 -16.720232 -14.318495 -33.346466 1.255063 8.975310 24.445179 0.858225 -6.691891 1.699396 0.114100 2.178300 5.998700 31.459789 -3.305037 13.240246 -0.500233 -4.292143 13.198385 0.951463 -9.568342 -8.428167 -0.005100 0.463300 -1.273100 1.425875 4.017768 -1.291552 4.877132 1.688621 0.247376 -0.863704 1.577887 11.893015 0.110300 -0.116900 8.023600 -90.049329 14.085579 22.398250 16.082720 -26.253491 -3.400543 0.461804 0.034664 8.875444 -7.125000 0.000000 0.000000 81.078713 4.102442 -17.084412 -5.135318 8.910027 -0.165990 0.753610 0.091172 3.057106 7.125000 0.000000 0.000000 
0.366526 17.585941 -30.119204 -3.940715 -0.465655 10.212918 -17.153278 -14.119567 -32.829730 1.284022 9.007550 24.580160 0.897089 -7.216037 1.630048 0.113100 2.168100 5.970600 31.162887 -3.329542 12.290534 -0.763286 -5.190921 15.768443 0.917991 -9.318434 -8.142602 -0.000700 0.169000 -0.464400 1.385919 4.109107 -1.250820 4.868811 1.730802 0.362575 -0.833418 1.377792 11.915975 0.071200 -0.196500 8.020300 -89.999745 13.741605 22.581682 16.019271 -26.177057 -3.380074 0.463965 0.030742 9.417810 -7.125000 0.000000 0.000000 80.998529 4.185306 -17.469072 -5.029356 8.707985 -0.145808 0.759914 0.065615 3.084382 7.125000 0.000000 0.000000 
